<?xml version="1.0" standalone="no"?>
<!DOCTYPE svg PUBLIC "-//W3C//DTD SVG 20010904//EN"
 "http://www.w3.org/TR/2001/REC-SVG-20010904/DTD/svg10.dtd">
<svg version="1.0" xmlns="http://www.w3.org/2000/svg"
 width="137.000000pt" height="137.000000pt" viewBox="0 0 137.000000 137.000000"
 preserveAspectRatio="xMidYMid meet">
<metadata>
Created by potrace 1.11, written by Peter Selinger 2001-2013
</metadata>
<g transform="translate(0.000000,137.000000) scale(0.100000,-0.100000)"
fill="#000000" stroke="none">
<path d="M180 1025 l0 -145 40 0 40 0 0 105 0 105 420 0 420 0 0 -105 0 -105
40 0 40 0 0 145 0 145 -500 0 -500 0 0 -145z"/>
<path d="M357 1043 c-12 -11 -8 -23 8 -23 8 0 15 7 15 15 0 16 -12 20 -23 8z"/>
<path d="M417 1043 c-12 -11 -8 -23 8 -23 8 0 15 7 15 15 0 16 -12 20 -23 8z"/>
<path d="M477 1043 c-12 -11 -8 -23 8 -23 8 0 15 7 15 15 0 16 -12 20 -23 8z"/>
<path d="M350 900 c0 -6 117 -10 330 -10 213 0 330 4 330 10 0 6 -117 10 -330
10 -213 0 -330 -4 -330 -10z"/>
<path d="M340 820 c0 -6 118 -10 335 -10 217 0 335 4 335 10 0 6 -118 10 -335
10 -217 0 -335 -4 -335 -10z"/>
<path d="M340 740 c0 -6 60 -10 160 -10 100 0 160 4 160 10 0 6 -60 10 -160
10 -100 0 -160 -4 -160 -10z"/>
<path d="M740 740 c0 -6 52 -10 135 -10 83 0 135 4 135 10 0 6 -52 10 -135 10
-83 0 -135 -4 -135 -10z"/>
<path d="M180 565 l0 -145 231 0 c181 0 230 -3 226 -12 -2 -7 -28 -51 -56 -98
l-51 -85 31 -3 c46 -5 55 1 91 67 18 34 36 61 39 61 4 0 25 -29 48 -65 38 -61
43 -65 77 -65 43 0 44 -3 -25 110 l-51 85 220 3 220 2 0 145 0 145 -40 0 -40
0 0 -105 0 -105 -420 0 -420 0 0 105 0 105 -40 0 -40 0 0 -145z"/>
<path d="M340 660 c0 -6 118 -10 335 -10 217 0 335 4 335 10 0 6 -118 10 -335
10 -217 0 -335 -4 -335 -10z"/>
<path d="M340 580 c0 -6 97 -10 270 -10 173 0 270 4 270 10 0 6 -97 10 -270
10 -173 0 -270 -4 -270 -10z"/>
<path d="M920 580 c0 -5 5 -10 10 -10 6 0 10 5 10 10 0 6 -4 10 -10 10 -5 0
-10 -4 -10 -10z"/>
<path d="M950 580 c0 -5 5 -10 10 -10 6 0 10 5 10 10 0 6 -4 10 -10 10 -5 0
-10 -4 -10 -10z"/>
<path d="M990 580 c0 -5 5 -10 10 -10 6 0 10 5 10 10 0 6 -4 10 -10 10 -5 0
-10 -4 -10 -10z"/>
</g>
</svg>
